PathFileType	4	(X/Y/Z)	..\data\2014014\dynamic\2014014_C4_05.trc
DataRate	CameraRate	NumFrames	NumMarkers	Units	OrigDataRate	OrigDataStartFrame	OrigNumFrames
100.000000	100.000000	4	52	mm	100.000000	67	180
Frame#	Time	L_IAS			L_IPS			R_IPS			R_IAS			L_FTC			L_FLE			L_FME			L_FAX			L_TTC			L_FAL			L_TAM			L_FCC			L_FM1			L_FM2			L_FM5			R_FTC			R_FLE			R_FME			R_FAX			R_TTC			R_FAL			R_TAM			R_FCC			R_FM1			R_FM2			R_FM5			CV7			TV10			SXS			SJN			L_SIA			L_SRS			L_SAA			L_SAE			L_HLE			L_HME			L_UOA			L_RSP			L_UHE			L_HM2			L_HM5			R_SIA			R_SRS			R_SAA			R_SAE			R_HLE			R_HME			R_UOA			R_RSP			R_UHE			R_HM2			R_HM5			
		X1	Y1	Z1	X2	Y2	Z2	X3	Y3	Z3	X4	Y4	Z4	X5	Y5	Z5	X6	Y6	Z6	X7	Y7	Z7	X8	Y8	Z8	X9	Y9	Z9	X10	Y10	Z10	X11	Y11	Z11	X12	Y12	Z12	X13	Y13	Z13	X14	Y14	Z14	X15	Y15	Z15	X16	Y16	Z16	X17	Y17	Z17	X18	Y18	Z18	X19	Y19	Z19	X20	Y20	Z20	X21	Y21	Z21	X22	Y22	Z22	X23	Y23	Z23	X24	Y24	Z24	X25	Y25	Z25	X26	Y26	Z26	X27	Y27	Z27	X28	Y28	Z28	X29	Y29	Z29	X30	Y30	Z30	X31	Y31	Z31	X32	Y32	Z32	X33	Y33	Z33	X34	Y34	Z34	X35	Y35	Z35	X36	Y36	Z36	X37	Y37	Z37	X38	Y38	Z38	X39	Y39	Z39	X40	Y40	Z40	X41	Y41	Z41	X42	Y42	Z42	X43	Y43	Z43	X44	Y44	Z44	X45	Y45	Z45	X46	Y46	Z46	X47	Y47	Z47	X48	Y48	Z48	X49	Y49	Z49	X50	Y50	Z50	X51	Y51	Z51	X52	Y52	Z52	

68	0.67	-451.518035888672	975.0352172851565	108.9271087646484	-664.3638916015626	995.8479614257815	177.9787597656249	-672.6243286132814	990.8431396484377	281.875244140625	-473.0692138671877	981.909851074219	363.4939575195312	-551.5579223632814	880.672058105469	36.22388458251947	-665.2623901367189	493.5853881835939	79.83728790283196	-665.5525512695314	484.2626953125001	216.1444091796875	-710.6585083007814	445.600067138672	78.01103973388665	-653.8509521484376	400.8087768554689	129.4298095703124	-905.5423583984377	121.6552963256836	106.7440872192382	-873.7182617187502	142.6383209228516	203.6516723632812	-972.2889404296877	105.1062622070313	164.3017425537109	-802.6504516601565	17.1923828125	216.168228149414	-780.252868652344	34.85041427612305	157.845230102539	-831.236267089844	19.71897888183594	97.46414184570305	-526.1990966796876	882.0943603515627	424.0393981933594	-429.8544006347658	479.8111267089845	355.8474426269531	-402.116668701172	495.0633544921876	230.5057983398438	-436.0125122070314	424.2025756835939	361.4402465820312	-364.0985717773439	434.1764526367189	316.0774230957031	-365.833221435547	55.3923683166504	346.53564453125	-330.1215820312501	92.77816772460939	255.1534881591797	-393.6768188476564	17.23282814025879	278.0165405273438	-192.199935913086	47.35056304931641	271.5713500976563	-201.6304321289063	56.64302062988283	328.4142761230469	-240.6970977783204	27.50790405273438	376.0652160644531	-635.8183593750001	1518.85693359375	247.7296142578125	-723.6255493164064	1268.054443359375	217.5836486816406	-451.3092651367189	1246.889038085938	252.9877319335938	-510.072723388672	1424.932861328125	263.2309265136719	-727.2130737304689	1304.701293945313	106.7348175048828	-691.6612548828126	1450.240600585938	119.5184326171874	-639.9129028320314	1452.233276367188	62.37423324584955	-587.2044067382814	1451.12548828125	43.61508941650384	-553.1887817382814	1122.514770507813	-71.34588623046884	-612.8622436523439	1098.430908203125	0.9434851408004012	-597.4686889648439	1087.374877929688	-57.32716369628915	-398.7394409179689	914.2310180664065	20.02397537231441	-446.7381896972657	886.8372802734377	-51.19579315185554	-336.2216186523438	847.8233032226565	17.13751220703121	-418.3514099121095	808.7522583007815	-48.99812316894538	-757.8913574218751	1286.228515625	329.7663269042968	-711.2627563476564	1428.472412109375	361.3229064941406	-678.9688720703126	1409.472412109375	433.3842773437501	-634.4545898437501	1405.9931640625	458.3981933593751	-670.331970214844	1065.050170898438	511.9634399414063	-675.9719238281251	1059.006225585938	406.6425170898438	-705.2283935546877	1047.552490234375	471.5321044921875	-564.7445068359376	817.7930908203127	457.7631530761719	-642.363220214844	814.5290527343752	509.8213195800782	-537.5669555664065	724.0979003906251	479.2707214355469	-649.2554321289065	717.1308593750001	493.6990966796876	
69	0.68	-438.8511352539064	975.6479492187502	111.0005874633789	-651.7369995117189	995.9864501953127	179.1058044433593	-659.9232788085939	991.9501953125002	283.6175231933594	-460.2906188964845	983.2949829101565	365.03759765625	-537.9479980468751	880.7781372070315	38.03201675415033	-648.2351684570314	492.5974731445314	77.3432540893554	-647.3656005859376	482.0039062500001	213.4283905029297	-694.9935913085939	445.4808959960939	75.70963287353509	-638.3760375976564	399.0752563476564	126.2483520507812	-898.8842773437502	127.5862197875977	105.9664688110351	-865.516296386719	146.9196014404297	202.5401000976562	-965.5540771484377	114.4731826782227	164.2648315429687	-803.1474609375002	17.587553024292	216.887954711914	-780.4388427734377	34.66543197631837	158.5917968749999	-830.191345214844	21.10819816589356	97.99295806884759	-513.0294799804689	883.789733886719	425.8043212890626	-418.3905029296877	480.7936401367189	357.4171752929688	-391.8336181640626	495.673797607422	232.0154724121094	-425.2235717773439	425.035125732422	363.14892578125	-354.0632324218751	433.9432678222657	316.8399353027344	-363.445526123047	55.04743576049806	346.7973937988281	-327.7055664062501	91.3638381958008	254.9557189941407	-393.4026794433595	17.99809265136719	278.5398559570312	-190.5914154052735	41.73837661743165	270.4251403808594	-198.5812530517579	51.56080627441408	327.6658935546876	-238.9798736572267	23.85831260681153	376.0299072265625	-624.1201171875001	1519.544189453125	250.371597290039	-711.3179931640626	1268.5859375	219.3209381103515	-439.1224060058595	1247.981201171875	254.8749237060547	-498.1974487304689	1425.855834960938	265.5230102539062	-715.4106445312501	1305.488647460938	108.8788146972656	-680.0939331054689	1451.183837890625	121.9711151123046	-628.3757934570314	1453.485473632813	64.83216857910151	-575.7757568359376	1452.467529296875	45.92832946777337	-544.4857177734376	1123.661376953125	-69.2196807861329	-603.2128295898439	1100.183715820313	3.772516489028858	-588.4764404296876	1089.0263671875	-54.65538406372079	-390.643280029297	913.818542480469	21.08371543884273	-439.5599670410157	886.8969726562502	-49.86199569702156	-328.6963195800782	846.986511230469	17.57729530334469	-411.8471984863282	808.604431152344	-47.92778015136724	-745.6895141601564	1286.509399414063	331.6923828124999	-699.3615722656251	1428.680053710938	363.6430358886718	-667.0400390625001	1409.552612304688	435.6559448242188	-622.5105590820314	1406.103393554688	460.6528320312501	-657.3093872070315	1065.084716796875	513.6815795898438	-663.2329101562501	1059.15283203125	408.2244262695313	-692.3182373046877	1047.638427734375	473.1961669921876	-552.5986328125001	817.5545654296877	458.5614013671876	-630.0811157226565	814.4246215820315	510.9934082031251	-525.6404418945315	723.6948242187501	479.6370849609376	-637.3161621093752	717.1141967773439	494.7973632812501	
70	0.6900000000000001	-426.5244445800782	976.2486572265627	113.0972595214843	-639.3325805664064	996.1591796875002	180.2669067382812	-647.4020996093751	993.1394042968752	285.3643188476562	-447.6777648925783	984.7818603515627	366.6136474609375	-524.3881835937501	880.8430175781252	39.92505645751947	-630.2890014648439	491.4224243164064	74.80656433105463	-627.8027343750001	479.2753295898439	210.5969848632812	-678.3489379882814	445.2503051757814	73.35646057128899	-621.8392944335939	397.2014465332032	122.82373046875	-891.2386474609377	134.0107116699219	105.4708709716796	-856.1441650390627	151.4053192138672	201.6452026367187	-957.518005371094	124.5035552978516	164.634796142578	-803.352722167969	18.53038597106934	217.6000671386718	-780.3424072265627	34.69634628295899	159.3845672607421	-828.7475585937502	23.23417091369629	98.56207275390618	-500.1817626953127	885.5415039062502	427.6204833984376	-407.2479858398439	481.8000488281251	358.8951416015625	-381.8707885742189	496.353973388672	233.4445343017578	-414.6866760253908	425.9520568847657	364.7708435058594	-344.3165588378907	433.7892150878907	317.4898071289062	-361.2429809570314	54.98352050781251	347.0599975585938	-325.5132446289064	90.25653076171876	254.7688598632813	-393.0709838867189	18.75497627258301	279.1241149902344	-189.1793975830079	36.78173446655274	269.5925598144532	-195.7493591308595	47.26479721069337	327.1920471191407	-237.5078430175782	20.99646759033203	376.3565368652344	-612.3867797851564	1520.326782226563	253.0283660888672	-699.0407104492189	1269.268188476563	221.0826873779297	-426.9654235839845	1249.143798828125	256.6900939941406	-486.2989501953127	1426.879760742188	267.7784118652344	-703.6370239257814	1306.4423828125	111.0055465698242	-668.5199584960939	1452.278076171875	124.4260101318359	-616.8360595703126	1454.904541015625	67.28523254394526	-564.3630371093751	1453.967163085938	48.22489547729487	-535.9543457031251	1124.980224609375	-67.09311676025399	-593.7321166992189	1102.13427734375	6.66253376007073	-579.6804199218751	1090.897216796875	-51.93034744262704	-382.9017639160157	913.393493652344	22.07003974914547	-432.8213500976564	887.0062255859377	-48.55489730834967	-321.6369323730469	846.077819824219	17.88284111022946	-405.878387451172	808.4883422851565	-46.9206047058106	-733.4661865234376	1286.957397460938	333.6640930175781	-687.4029541015626	1429.006225585938	365.9742126464844	-655.0449218750001	1409.750854492188	437.9325561523438	-610.4929199218751	1406.330810546875	462.9025573730469	-644.1518554687502	1065.242797851563	515.4608764648438	-650.3574829101564	1059.406494140625	409.8776550292969	-679.266784667969	1047.843017578125	474.9398803710938	-540.2329711914064	817.4710693359377	459.4874877929688	-617.583190917969	814.4609985351565	512.2882080078125	-513.4620361328127	723.4650878906251	480.1725463867188	-625.1336059570315	717.2357177734376	496.0530700683594	
71	0.7000000000000001	-414.5979309082032	976.811706542969	115.1683502197265	-627.2098388671876	996.3679809570315	181.4716491699218	-635.1123046875001	994.3768310546877	287.0914306640625	-435.2806396484377	986.329528808594	368.2074890136719	-510.9771423339845	880.8596191406252	41.87629318237299	-611.4599609375001	490.0863647460939	72.29299926757807	-606.9242553710939	476.1302185058595	207.7226104736328	-660.7174072265626	444.9366760253907	71.00038146972649	-604.2616577148439	395.2239685058595	119.2550277709961	-882.537780761719	140.9488525390625	105.2595138549804	-845.5865478515627	156.1233673095703	200.9746704101562	-948.1174926757815	135.1497192382813	165.388931274414	-803.018005371094	20.14608001708985	218.2019805908203	-779.745544433594	35.05731964111329	160.1290740966796	-826.741394042969	26.23256874084473	99.11484527587884	-487.7150878906252	887.2993164062502	429.4632873535157	-396.5328063964845	482.7845153808595	360.2421875	-372.3067016601564	497.0635986328126	234.759521484375	-404.5227661132814	426.903778076172	366.25390625	-334.948699951172	433.6793823242189	317.9978332519531	-359.2395935058595	55.17310714721681	347.2769470214844	-323.5637512207032	89.4469680786133	254.552963256836	-392.6631164550783	19.45843505859375	279.718017578125	-187.9563903808594	32.55803298950196	269.0026245117188	-193.1592102050782	43.81443023681641	326.9156494140626	-236.2529296875001	18.93743133544922	376.9445495605469	-600.6216430664064	1521.187133789063	255.6789245605468	-686.8296508789064	1270.09375	222.8676605224609	-414.8648681640627	1250.338989257813	258.4039001464844	-474.3857421875002	1427.974975585938	269.9711608886719	-691.9158325195314	1307.554565429688	113.1059265136718	-656.9484252929689	1453.5087890625	126.8659286499023	-605.3045654296876	1456.467895507813	69.71276855468744	-552.9755859375001	1455.59814453125	50.48531723022455	-527.5487060546876	1126.45361328125	-64.97477722167977	-584.4100341796876	1104.250732421875	9.572075843810966	-571.0576782226564	1092.954956054688	-49.18397521972665	-375.5002136230469	912.953308105469	22.98242759704586	-426.4906311035157	887.1617431640627	-47.28098678588873	-315.0359802246094	845.0854492187502	18.07653236389157	-400.4158630371095	808.3999023437502	-45.97299194335943	-721.2404174804689	1287.566040039063	335.6815490722656	-675.3851928710939	1429.442626953125	368.3060607910156	-642.9769287109376	1410.056274414063	440.2018432617188	-598.393493652344	1406.660034179688	465.1319274902344	-630.8735961914065	1065.503173828125	517.2939453125	-637.3649902343751	1059.74755859375	411.5975646972657	-666.0893554687502	1048.148071289063	476.7638549804688	-527.6417236328126	817.5332641601565	460.5399169921876	-604.862731933594	814.6225585937502	513.7001953125	-501.0225524902345	723.3997802734376	480.8783569335938	-612.6966552734377	717.4769897460939	497.4575195312501	
